<svg width="91" height="75" viewBox="0 0 91 75" fill="none" xmlns="http://www.w3.org/2000/svg">
<path d="M50.8414 0.286807C47.3255 1.36303 44.889 4.68393 44.8582 8.46608C44.7965 11.9715 46.7395 13.6934 50.6872 13.6627C53.9564 13.6319 56.4237 12.0945 58.0275 9.11181C58.9527 7.32836 58.9836 3.51547 58.0583 2.25475C56.7321 0.440553 53.4013 -0.481921 50.8414 0.286807Z" fill="black"/>
<path d="M9.8224 12.1252C4.61021 13.2937 1.80364 17.1988 1.80364 23.3179C1.80364 28.1455 4.85694 33.4651 9.26726 36.4478L10.7785 37.4317L9.02052 37.6162C6.83079 37.8315 3.68496 39.3382 2.54383 40.6911C0.755032 42.7821 0.138205 44.75 0.014839 48.5937C-0.201051 55.6045 1.92701 60.3706 7.17004 64.491C11.8271 68.1501 17.9645 70.2411 24.0094 70.2411C29.4067 70.2103 32.46 68.8573 34.002 65.7517C34.8964 63.9375 34.989 64.2142 34.3413 66.8894C33.3544 70.979 34.002 73.0392 36.5927 74.2077C40.1703 75.7759 47.8498 74.9149 51.2115 72.5165C51.9826 71.9938 52.7228 70.0258 52.3218 69.6261C52.2293 69.5646 51.2424 69.6876 50.1321 69.9336C47.7265 70.4255 46.7395 70.1181 46.5853 68.8573C46.5237 68.3961 48.59 57.8491 51.119 45.365C53.6789 32.8809 55.7761 22.6414 55.7761 22.5799C55.7761 22.5184 55.1901 22.4569 54.4499 22.4569C53.3396 22.4569 47.6031 24.1173 37.3638 27.4075C36.4077 27.715 36.346 27.838 36.346 29.0987C36.346 30.6977 36.7469 30.9744 38.3507 30.4517C39.7385 29.9904 40.9105 30.2672 41.2806 31.1589C41.4965 31.6509 40.7563 35.8635 38.2273 47.9787C35.174 62.7998 34.8964 63.9682 34.7422 62.1848C34.6497 60.6166 34.4647 60.1246 33.7245 59.3559C31.9974 57.5417 28.8207 57.0189 27.6487 58.3719C27.3712 58.6486 27.0627 59.5711 26.9394 60.4321C26.5076 63.4762 25.1814 65.1674 22.7141 65.8439C20.0926 66.5204 15.6823 65.1059 13.0607 62.7075C10.1308 60.0016 8.83548 56.7114 8.77379 51.8223C8.74295 47.8557 9.26726 45.98 10.9327 44.012C13.4308 41.0909 15.8365 40.7219 21.9431 42.2286L26.1683 43.2741V41.2446V39.1844L22.5907 38.3234C18.1804 37.2472 15.8056 36.0788 14.0785 34.1723C11.642 31.4664 10.4392 28.207 10.4392 24.3018C10.4392 20.4582 11.3953 18.3365 13.6776 16.9835C14.757 16.3686 15.2196 16.3071 17.2243 16.3993C23.2384 16.7376 26.816 19.9662 27.402 25.5933C27.5562 27.223 27.8338 28.33 28.2347 28.8527C29.6534 30.7592 32.8301 31.3741 34.3721 30.0519C36.1609 28.5145 35.575 24.3018 33.1076 20.9502C28.4814 14.7081 17.3169 10.4647 9.8224 12.1252Z" fill="black"/>
<path d="M72.2762 13.5396C69.2538 13.9701 66.5706 14.7388 64.1032 15.9073C58.5826 18.5517 55.1284 24.3018 57.4415 26.977C58.12 27.7457 58.3667 27.838 60.1864 27.838C63.178 27.838 63.9799 27.1307 65.3369 23.3486C66.6939 19.5972 69.7164 17.5063 74.1267 17.291C79.9557 16.9835 82.6081 19.4742 82.2071 24.8861C81.8987 28.9142 79.0613 33.6188 75.6379 35.7405C73.5099 37.0935 72.4304 37.3087 67.4958 37.4932L62.7462 37.6777L62.4995 38.9077C62.3761 39.5841 62.1911 40.4451 62.0986 40.8141L61.9444 41.5213H66.3855C70.1482 41.5213 71.1351 41.6136 72.5538 42.1363C76.4706 43.6123 78.2594 47.6097 77.2417 52.591C76.1931 57.5724 73.1089 62.0003 69.4388 63.8145C67.9584 64.5524 67.1565 64.7369 64.7818 64.8292C61.3584 64.9829 59.6929 64.4909 58.2742 62.892C57.1948 61.6313 56.8555 60.2476 57.1331 57.9414C57.3181 56.3424 57.2565 56.1887 56.4237 55.3277C55.6527 54.559 55.2826 54.436 53.8639 54.436C51.6433 54.436 50.2555 55.2047 49.3919 56.8959C48.0657 59.4173 48.59 62.3077 50.7489 64.6139C53.463 67.5044 57.6266 68.8881 63.7023 68.8881C73.479 68.8881 81.2511 64.8292 84.4894 57.9721C86.4324 53.8517 87.0801 49.3009 86.124 46.1337C85.4763 43.9198 82.5772 40.9986 80.1408 40.0454C78.6604 39.4919 78.537 39.3689 79.1538 39.1844C81.4978 38.5079 84.366 36.7552 86.3399 34.7873C89.6708 31.4664 91.1511 27.6842 90.8736 23.2256C90.5652 18.4595 87.7586 15.4461 82.2688 13.9701C80.2025 13.4166 74.7435 13.1706 72.2762 13.5396Z" fill="black"/>
</svg>
